# xmcd CD database file
#
# Track frame offsets:
#	150
#	16756
#	31998
#	44697
#	64849
#	80897
#	98153
#	120754
#	132920
#
# Disc length: 1937 seconds
#
# Revision: 0
# Processed by: cddbd v1.5.2PL0 Copyright (c) Steve Scherf et al.
# Submitted via: CDex 1.51
#
DISCID=6f078f09
DTITLE=Sparklehorse - Stained Glass Tears '96 - '06
DYEAR=2006
DGENRE=Country
TTITLE0=Someday I will treat you good
TTITLE1=Spirit ditch
TTITLE2=Hammering the cramps
TTITLE3=Happy man
TTITLE4=Sick of goodbyes
TTITLE5=Painbirds
TTITLE6=Sunshine
TTITLE7=Piano fire
TTITLE8=Dog door
EXTD=YEAR: 2006
EXTT0=
EXTT1=
EXTT2=
EXTT3=
EXTT4=
EXTT5=
EXTT6=
EXTT7=
EXTT8=
PLAYORDER=
